# xmcd
# 
# Track frame offsets:
#     150
#     14581
#     29471
#     46211
#     59585
#     71955
#     84794
#     99447
# 
# Disc length: 1487
# 
# Revision: 0
# Processed by: cddbd v1.5.2PL0 Copyright (c) Steve Scherf et al.
# Submitted via: fre:ac v1.0.17
# 
DISCID=6605cd08
DTITLE=22-20s - LATEST OUTTAKES
DYEAR=2010
DGENRE=Rock
TTITLE0=Blood In The Basement
TTITLE1=If You Love Her, Let Her Go
TTITLE2=Crack in My Confidence
TTITLE3=Fearless When I Fantasise
TTITLE4=Connection
TTITLE5=Rescue
TTITLE6=Bitter Pills (acoustic)
TTITLE7=Ocean (acoustic)
EXTD=
EXTT0=
EXTT1=
EXTT2=
EXTT3=
EXTT4=
EXTT5=
EXTT6=
EXTT7=
PLAYORDER=
